<svg class="icon" viewBox="0 0 1024 1024" version="1.1" xmlns="http://www.w3.org/2000/svg"
     width="1024" height="1024">
    <path d="M628.736 366.592c8.192 0 18.432 0 26.624 2.048-24.576-112.64-143.36-196.608-278.528-196.608C227.328 169.984 102.4 276.48 102.4 409.6c0 77.824 40.96 141.312 110.592 190.464L184.32 684.032l96.256-49.152c34.816 6.144 61.44 14.336 96.256 14.336 8.192 0 16.384 0 26.624-2.048-6.144-18.432-8.192-38.912-8.192-59.392 0-120.832 102.4-221.184 233.472-221.184m-147.456-75.776c20.48 0 34.816 14.336 34.816 34.816s-14.336 34.816-34.816 34.816-40.96-14.336-40.96-34.816c0-22.528 20.48-34.816 40.96-34.816m-192.512 69.632c-20.48 0-40.96-14.336-40.96-34.816s20.48-34.816 40.96-34.816 34.816 14.336 34.816 34.816-14.336 34.816-34.816 34.816M921.6 620.544c0-112.64-110.592-204.8-233.472-204.8-131.072 0-235.52 92.16-235.52 204.8s102.4 204.8 235.52 204.8c26.624 0 55.296-6.144 81.92-14.336l75.776 43.008-20.48-69.632c55.296-43.008 96.256-100.352 96.256-163.84m-309.248-34.816c-14.336 0-26.624-14.336-26.624-28.672s14.336-28.672 26.624-28.672c20.48 0 34.816 14.336 34.816 28.672-2.048 14.336-14.336 28.672-34.816 28.672m151.552 0c-14.336 0-26.624-14.336-26.624-28.672s14.336-28.672 26.624-28.672c20.48 0 34.816 14.336 34.816 28.672s-14.336 28.672-34.816 28.672"
          fill="#0F6CBD"/>
</svg>